<?xml version="1.0" encoding="utf-8"?>
<!-- Generator: Adobe Illustrator 22.1.0, SVG Export Plug-In . SVG Version: 6.00 Build 0)  -->
<svg version="1.1" id="Layer_1" xmlns="http://www.w3.org/2000/svg" xmlns:xlink="http://www.w3.org/1999/xlink" x="0px" y="0px"
	 viewBox="0 0 80 80" style="enable-background:new 0 0 80 80;" xml:space="preserve">
<title>icon-devops</title>
<desc>Created with Sketch.</desc>
<path d="M34.7,69.1c-0.9,0-1.6-0.6-1.8-1.5l-0.2-1.2c-0.3-0.1-0.6-0.2-0.9-0.4l-1,0.7c-0.7,0.5-1.7,0.5-2.3-0.1l-1.4-1.3
	c-0.6-0.6-0.7-1.6-0.3-2.3l0.7-1c-0.2-0.3-0.3-0.6-0.4-1l-1.2-0.2c-0.9-0.1-1.5-0.9-1.6-1.8l0-1.9c0-0.9,0.6-1.7,1.5-1.8l1.2-0.2
	c0.1-0.3,0.2-0.7,0.4-1l-0.7-1c-0.5-0.7-0.5-1.7,0.1-2.3l1.3-1.4c0.6-0.6,1.6-0.7,2.3-0.3l1,0.7c0.3-0.2,0.6-0.3,1-0.4l0.2-1.2
	c0.1-0.9,0.9-1.5,1.8-1.6l1.9,0c0.9,0,1.7,0.6,1.8,1.5l0.2,1.2c0.4,0.1,0.7,0.2,1,0.4l1-0.7c0.7-0.5,1.7-0.5,2.3,0.1l1.4,1.3
	c0.6,0.6,0.7,1.6,0.3,2.3l-0.7,1c0.2,0.3,0.3,0.6,0.4,1l1.2,0.2c0.8,0.1,1.5,0.8,1.6,1.7l0,1.9c0,0.9-0.6,1.7-1.5,1.8L44,60.6
	c-0.1,0.3-0.2,0.7-0.4,1l0.7,1c0.5,0.7,0.5,1.7-0.1,2.3l-1.3,1.4c-0.6,0.6-1.6,0.8-2.3,0.3l-1-0.7c-0.3,0.2-0.6,0.3-1,0.4l-0.2,1.2
	c-0.1,0.9-0.9,1.5-1.8,1.6L34.7,69.1C34.8,69.1,34.8,69.1,34.7,69.1z M31.6,63.5l0.6,0.3c0.5,0.3,1.1,0.5,1.7,0.7l0.7,0.2l0.4,2.3
	l1.3,0l0.3-2.3l0.7-0.2c0.6-0.2,1.2-0.4,1.7-0.8l0.6-0.4l1.9,1.3l0.9-0.9L41,61.8l0.4-0.6c0.3-0.5,0.5-1.1,0.7-1.8l0.2-0.7l2.3-0.4
	l0-1.2l-2.3-0.3L42,56c-0.2-0.6-0.4-1.2-0.8-1.7l-0.4-0.6l1.3-1.9l-0.9-0.9l-1.9,1.4l-0.6-0.4c-0.6-0.3-1.2-0.5-1.8-0.7l-0.7-0.2
	l-0.4-2.3l-1.3,0l-0.3,2.3l-0.7,0.2c-0.6,0.2-1.2,0.4-1.7,0.8l-0.6,0.4l-1.9-1.3l-0.9,0.9l1.4,1.9l-0.3,0.6
	c-0.3,0.6-0.5,1.2-0.7,1.8l-0.2,0.7l-2.3,0.4l0,1.3l2.3,0.3l0.2,0.7c0.2,0.6,0.4,1.2,0.8,1.7l0.4,0.6L28.8,64l0.9,0.9L31.6,63.5z
	 M36.6,66.9C36.6,66.9,36.6,66.9,36.6,66.9L36.6,66.9z M42.6,63.4C42.6,63.4,42.6,63.4,42.6,63.4L42.6,63.4z M28.3,52.3L28.3,52.3
	C28.3,52.3,28.3,52.3,28.3,52.3z M35.5,63.1c-2.8,0-5.2-2.3-5.2-5.1l0,0c-0.1-2.9,2.2-5.3,5.1-5.4c2.9-0.1,5.3,2.2,5.4,5.1
	c0.1,2.9-2.2,5.3-5.1,5.4C35.6,63.1,35.6,63.1,35.5,63.1z M32.5,57.9c0,1.7,1.4,3,3,3c0,0,0,0,0.1,0c1.7,0,3-1.4,3-3.1
	c0-1.7-1.4-3-3-3c0,0,0,0-0.1,0C33.8,54.9,32.5,56.3,32.5,57.9L32.5,57.9z M55.2,57.6h-2c-0.9,0-1.7-0.6-1.8-1.5l-0.2-1.3
	c-0.3-0.1-0.7-0.3-1-0.4l-1.1,0.8c-0.7,0.5-1.7,0.4-2.4-0.2l-1.4-1.4c-0.6-0.6-0.7-1.6-0.2-2.4l0.7-1c-0.2-0.3-0.3-0.7-0.4-1
	l-1.3-0.2c-0.9-0.2-1.5-0.9-1.5-1.8v-2c0-0.9,0.6-1.7,1.5-1.8l1.3-0.2c0.1-0.4,0.3-0.7,0.4-1.1l-0.8-1.1c-0.5-0.7-0.4-1.7,0.2-2.4
	l1.4-1.4c0.6-0.6,1.6-0.7,2.4-0.2l1,0.8c0.3-0.2,0.7-0.3,1-0.4l0.2-1.3c0.2-0.9,0.9-1.5,1.8-1.5h2c0.9,0,1.7,0.6,1.8,1.5l0.2,1.2
	c0.4,0.1,0.8,0.3,1.1,0.5l1.1-0.8c0.7-0.5,1.7-0.4,2.4,0.2l1.4,1.4c0.6,0.6,0.7,1.6,0.2,2.4L62.6,42c0.2,0.3,0.3,0.7,0.4,1.1
	l1.3,0.2c0.9,0.1,1.5,0.9,1.5,1.8l0,2c0,0.9-0.6,1.7-1.5,1.8L63,49c-0.1,0.4-0.3,0.7-0.4,1.1l0.8,1.1c0.5,0.7,0.4,1.7-0.2,2.4
	l-1.4,1.4c-0.6,0.6-1.6,0.7-2.4,0.2l-1.1-0.8c-0.3,0.2-0.7,0.3-1.1,0.4l-0.2,1.3C56.9,57,56.1,57.6,55.2,57.6z M53.6,55.4h1.4
	l0.4-2.4l0.7-0.2c0.6-0.2,1.3-0.4,1.8-0.8l0.6-0.4l2,1.4l1-1l-1.4-2l0.4-0.6c0.3-0.6,0.6-1.2,0.8-1.8l0.2-0.7l2.4-0.4v-1.3L61.3,45
	l-0.2-0.7c-0.2-0.7-0.4-1.3-0.8-1.8L60,41.8l1.4-2l-1-1l-2,1.4l-0.6-0.4c-0.6-0.3-1.2-0.6-1.9-0.8L55.3,39l-0.4-2.4h-1.4L53.1,39
	l-0.7,0.2c-0.6,0.2-1.2,0.4-1.8,0.8L50,40.3l-1.9-1.4l-1,1l1.4,2l-0.4,0.6c-0.3,0.6-0.6,1.2-0.7,1.8L47.2,45l-2.4,0.4v1.4l2.4,0.4
	l0.2,0.7c0.2,0.6,0.4,1.2,0.8,1.8l0.4,0.6l-1.4,1.9l1,1l2-1.4l0.6,0.4c0.6,0.3,1.2,0.6,1.8,0.7l0.7,0.2L53.6,55.4z M54.3,51.4
	c-3,0-5.4-2.4-5.4-5.4s2.4-5.4,5.4-5.4s5.4,2.4,5.4,5.4S57.3,51.4,54.3,51.4z M54.3,42.8c-1.8,0-3.2,1.4-3.2,3.2
	c0,1.8,1.4,3.2,3.2,3.2s3.2-1.4,3.2-3.2C57.5,44.3,56.1,42.8,54.3,42.8z M30.2,47.1c-0.2,0-0.4,0-0.5-0.1l-3.1-0.7
	c-1.1-0.3-1.9-1.3-1.8-2.4l0.2-2.5c-0.7-0.4-1.4-0.9-2-1.4l-2.4,1c-1.1,0.4-2.3,0-2.8-0.9L16,37.3c-0.6-1-0.4-2.2,0.4-3l1.9-1.7
	c-0.2-0.9-0.4-1.7-0.4-2.5l-2.4-1c-1-0.4-1.6-1.6-1.4-2.7l0.7-3.1c0.3-1.1,1.3-1.9,2.4-1.8l2.5,0.2c0.4-0.7,0.9-1.4,1.5-2.1l-1-2.4
	c-0.4-1.1,0-2.3,0.9-2.8l2.7-1.7c1-0.6,2.2-0.4,3,0.4l1.6,1.9c0.8-0.2,1.7-0.4,2.5-0.4l1-2.4c0.4-1,1.6-1.6,2.7-1.4l3.1,0.7
	c1.1,0.3,1.9,1.3,1.8,2.4l-0.2,2.5c0.8,0.4,1.5,1,2.2,1.6l2.3-1c1.1-0.4,2.2,0,2.8,0.9l1.7,2.7c0.6,1,0.4,2.2-0.4,3l-1.9,1.7
	c0.2,0.8,0.4,1.7,0.4,2.6l2.3,1c1,0.4,1.6,1.5,1.4,2.6l-0.7,3.2c-0.3,1.1-1.3,1.9-2.4,1.8l-2.5-0.2c-0.4,0.8-0.9,1.5-1.5,2.1l1,2.3
	c0.4,1.1,0,2.2-0.9,2.8l-2.7,1.7c-1,0.6-2.2,0.4-3-0.4L35.9,43c-0.8,0.2-1.7,0.4-2.6,0.4l-1,2.3C32,46.6,31.1,47.1,30.2,47.1z
	 M23.4,37.4l0.5,0.5c0.8,0.8,1.7,1.4,2.7,1.9l0.6,0.3L27,44.1c0,0.1,0,0.1,0.1,0.1l3.1,0.7c0.1,0,0.1,0,0.1-0.1l1.5-3.6l0.7,0
	c1.2,0,2.3-0.2,3.4-0.6l0.7-0.2l2.6,3c0,0,0.1,0.1,0.1,0l2.7-1.7c0,0,0.1-0.1,0-0.1L40.6,38l0.5-0.5c0.8-0.8,1.4-1.7,2-2.8l0.3-0.6
	l3.9,0.3c0.1,0,0.1,0,0.1-0.1l0.7-3.1c0,0,0-0.1-0.1-0.1l-3.6-1.5l0-0.7c0-1.2-0.2-2.3-0.6-3.4l-0.2-0.7l3-2.6c0,0,0.1-0.1,0-0.1
	L45,19.3c0,0-0.1-0.1-0.1,0l-3.6,1.5l-0.5-0.5c-0.8-0.8-1.8-1.5-2.8-2l-0.7-0.3l0.2-3.9c0-0.1,0-0.1-0.1-0.1l-3.1-0.7
	c0,0-0.1,0-0.1,0.1l-1.5,3.6l-0.7,0c-1.1,0-2.2,0.2-3.4,0.6l-0.7,0.2l-2.6-3c0,0-0.1,0-0.1,0l-2.7,1.7c0,0-0.1,0.1,0,0.1l1.5,3.7
	l-0.5,0.5c-0.8,0.8-1.4,1.8-2,2.8L21.1,24l-3.9-0.2c-0.1,0-0.1,0-0.1,0.1L16.3,27c0,0,0,0.1,0.1,0.1l3.6,1.5l0,0.7
	c0,1.1,0.2,2.2,0.6,3.4l0.2,0.7L17.9,36c0,0-0.1,0.1,0,0.1l1.7,2.7c0,0,0.1,0.1,0.1,0L23.4,37.4z M32.4,37.1c-0.6,0-1.2-0.1-1.8-0.2
	c-4.3-1-7-5.4-6-9.7l0,0c1-4.3,5.4-7,9.7-6c4.3,1,7,5.4,6,9.7C39.4,34.6,36.1,37.1,32.4,37.1z M32.4,23.2c-2.7,0-5.1,1.8-5.7,4.5
	l0,0c-0.7,3.2,1.2,6.3,4.4,7.1c1.5,0.4,3.1,0.1,4.4-0.7c1.3-0.8,2.3-2.1,2.6-3.7c0.7-3.2-1.2-6.3-4.4-7.1
	C33.3,23.2,32.8,23.2,32.4,23.2z"/>
</svg>
