<?xml version="1.0" encoding="utf-8"?>
<!-- Generator: Adobe Illustrator 22.1.0, SVG Export Plug-In . SVG Version: 6.00 Build 0)  -->
<svg version="1.1" id="Ebene_1" xmlns="http://www.w3.org/2000/svg" xmlns:xlink="http://www.w3.org/1999/xlink" x="0px" y="0px"
	 viewBox="0 0 595.28 841.89" style="enable-background:new 0 0 595.28 841.89;" xml:space="preserve">
<path fill="#f8f9fa" d="M293.04,488.786c54.877,0,99.522-44.646,99.522-99.523c0-54.876-44.644-99.522-99.522-99.522s-99.522,44.646-99.522,99.522
	C193.519,444.14,238.163,488.786,293.04,488.786z M293.04,311.382c33.918,0,62.763,21.832,73.422,52.152h-15.943v-9.238
	c0-5.977-4.844-10.821-10.821-10.821h-93.316c-5.977,0-10.821,4.844-10.821,10.821v9.238h-15.943
	C230.278,333.214,259.123,311.382,293.04,311.382z M328.878,365.116v18.396c0,9.971-5.729,18.396-12.507,18.396
	c-6.781,0-12.51-8.425-12.51-18.396v-18.396H328.878z M282.22,365.116v18.396c0,9.971-5.729,18.396-12.51,18.396
	c-6.778,0-12.507-8.425-12.507-18.396v-18.396H282.22z M215.371,385.085c0.302,0.025,0.591,0.091,0.899,0.091h19.363
	c0.752,21.302,15.726,38.374,34.076,38.374c9.012,0,17.219-4.115,23.33-10.825c6.111,6.711,14.318,10.825,23.331,10.825
	c18.35,0,33.324-17.072,34.076-38.374h17.181c1.07,0,2.084-0.203,3.061-0.493c0.089,1.524,0.232,3.034,0.232,4.58
	c0,42.944-34.937,77.882-77.88,77.882c-42.943,0-77.88-34.938-77.88-77.882C215.16,387.853,215.297,386.477,215.371,385.085z"/>
<path fill="#f8f9fa" d="M270.801,279.764c6.781,0,12.51-8.424,12.51-18.394v-18.398h-25.017v18.398C258.295,271.34,264.023,279.764,270.801,279.764
	z"/>
<path fill="#f8f9fa" d="M317.462,279.764c6.778,0,12.507-8.424,12.507-18.394v-18.398h-25.017v18.398
	C304.953,271.34,310.681,279.764,317.462,279.764z"/>
<path fill="#f8f9fa" d="M152.712,548.079c-25.463,41.223-25.093,48.803-21.537,55.255c2.188,3.974,6.255,6.347,10.879,6.347h73.994
	c4.082,0,7.816-2.297,9.658-5.94l8.014-15.856c38.236,10.129,79.352,10.227,117.684,0.243l7.874,15.607
	c1.839,3.646,5.575,5.946,9.661,5.946h73.994c4.615,0,8.676-2.366,10.866-6.326c3.605-6.518,3.945-13.717-21.201-54.691
	c57.479-43.618,91.489-111.693,91.489-184.13c0-47.475-14.239-92.932-41.217-131.722c3.372-59.666-7.035-96.241-30.956-108.736
	c-0.117-0.061-0.242-0.105-0.359-0.164c-1.18-0.602-2.383-1.161-3.621-1.66c-0.62-0.25-1.268-0.449-1.902-0.673
	c-0.744-0.262-1.48-0.539-2.245-0.766c-0.829-0.247-1.687-0.441-2.538-0.647c-0.587-0.14-1.166-0.295-1.764-0.415
	c-1.003-0.203-2.033-0.357-3.066-0.504c-0.456-0.064-0.906-0.137-1.368-0.19c-1.178-0.137-2.38-0.227-3.595-0.293
	c-0.318-0.017-0.634-0.038-0.954-0.05c-1.36-0.053-2.745-0.057-4.152-0.023c-0.164,0.004-0.328,0.008-0.493,0.014
	c-15.954,0.508-34.883,6.609-56.641,18.273c-0.369,0.197-0.727,0.372-1.097,0.572c-0.229,0.123-0.449,0.25-0.676,0.374
	c-0.904,0.493-1.811,0.994-2.725,1.507c-2.037,1.139-4.04,2.285-5.987,3.436c-0.043,0.025-0.083,0.047-0.126,0.072
	c-42.423-12.537-88.606-12.547-131.035-0.028c-0.072-0.043-0.142-0.08-0.214-0.123c-1.88-1.109-3.816-2.214-5.78-3.312
	c-0.981-0.55-1.956-1.089-2.926-1.617c-0.19-0.103-0.373-0.209-0.563-0.311c-0.319-0.172-0.627-0.322-0.945-0.492
	c-19.708-10.57-37.097-16.59-52.062-18.04c-0.024-0.002-0.049-0.005-0.073-0.008c-1.571-0.151-3.115-0.251-4.633-0.301
	c-0.216-0.008-0.43-0.013-0.644-0.018c-1.361-0.032-2.703-0.028-4.021,0.022c-0.369,0.013-0.731,0.037-1.097,0.057
	c-1.172,0.066-2.334,0.151-3.471,0.283c-0.508,0.058-1.004,0.138-1.505,0.209c-0.991,0.143-1.979,0.289-2.942,0.483
	c-0.651,0.13-1.282,0.297-1.92,0.451c-0.8,0.194-1.607,0.376-2.387,0.607c-0.837,0.247-1.644,0.547-2.457,0.837
	c-0.566,0.203-1.147,0.378-1.703,0.602c-1.368,0.549-2.704,1.155-4.001,1.832c-23.933,12.49-34.353,49.049-30.987,108.698
	c-26.997,38.798-41.245,84.269-41.245,131.762C61.994,436.582,95.723,504.442,152.712,548.079z M123.047,242.245
	c1.469-2.038,2.185-4.524,2.02-7.031c-3.234-49.619,3.931-83.992,19.164-91.948c0.003-0.001,0.005-0.002,0.008-0.003
	c0.039-0.02,0.081-0.033,0.12-0.053c0.874-0.449,1.79-0.851,2.755-1.194c0.028-0.01,0.057-0.016,0.084-0.026
	c9.037-3.166,22.003-1.685,37.669,4.093c1.241,0.465,2.486,0.951,3.734,1.458c0.007,0.003,0.014,0.006,0.021,0.009
	c24.656,10.028,50.243,27.867,61.393,36.895c2.005,1.623,4.41,2.413,6.803,2.413c3.152,0,6.276-1.37,8.412-4.007
	c3.764-4.642,3.054-11.451-1.588-15.215c-0.368-0.298-4.487-3.62-11.133-8.397c26.736-5.22,54.454-5.213,81.188,0.024
	c-6.624,4.766-10.728,8.079-11.095,8.376c-4.639,3.767-5.346,10.58-1.579,15.22c2.139,2.635,5.26,4.001,8.406,4.001
	c2.396,0,4.808-0.793,6.815-2.421c10.457-8.489,33.648-24.758,56.847-35.009c0.292-0.128,0.588-0.262,0.878-0.387
	c0.836-0.364,1.671-0.712,2.507-1.059c17.846-7.33,32.571-9.488,42.509-5.981c0.008,0.003,0.017,0.005,0.026,0.008
	c1.012,0.358,1.974,0.774,2.885,1.25c15.23,7.955,22.388,42.344,19.147,91.991c-0.165,2.506,0.548,4.993,2.017,7.029
	c25.766,35.77,39.387,78.046,39.387,122.255c0,68.772-33.833,133.212-90.504,172.379c-4.765,3.293-6.093,9.751-3.014,14.655
	c11.677,18.604,17.883,29.809,21.182,36.471h-54.513l-8.886-17.616c-2.372-4.696-7.779-7.011-12.801-5.479
	c-39.675,12.036-83.068,11.927-122.626-0.263c-5.031-1.55-10.463,0.753-12.843,5.459l-9.049,17.899h-54.541
	c3.317-6.749,9.606-18.139,21.51-36.964c3.094-4.89,1.799-11.355-2.947-14.664c-56.218-39.206-89.778-103.458-89.778-171.877
	C83.635,320.307,97.265,278.019,123.047,242.245z"/>
</svg>
